name D:\school\WTK\thesis\model\3dpredictsim\Results\MidTarsalJoint\Fal_s1_bCst_PF_Song2011_ls150_MT_nl_Song2011_MTP_T5_ig24.mot
datacolumns 128
datarows 4
range 0.00000000 0.03321131
endheader
time	pelvis_tilt	pelvis_list	pelvis_rotation	pelvis_tx	pelvis_ty	pelvis_tz	hip_flexion_l	hip_adduction_l	hip_rotation_l	hip_flexion_r	hip_adduction_r	hip_rotation_r	knee_angle_l	knee_angle_r	ankle_angle_l	ankle_angle_r	subtalar_angle_l	subtalar_angle_r	mtj_angle_l	mtj_angle_r	mtp_angle_l	mtp_angle_r	lumbar_extension	lumbar_bending	lumbar_rotation	arm_flex_l	arm_add_l	arm_rot_l	arm_flex_r	arm_add_r	arm_rot_r	elbow_flex_l	elbow_flex_r	pro_sup_l	pro_sup_r	glut_med1_l/activation	glut_med2_l/activation	glut_med3_l/activation	glut_min1_l/activation	glut_min2_l/activation	glut_min3_l/activation	semimem_l/activation	semiten_l/activation	bifemlh_l/activation	bifemsh_l/activation	sar_l/activation	add_long_l/activation	add_brev_l/activation	add_mag1_l/activation	add_mag2_l/activation	add_mag3_l/activation	tfl_l/activation	pect_l/activation	grac_l/activation	glut_max1_l/activation	glut_max2_l/activation	glut_max3_l/activation	iliacus_l/activation	psoas_l/activation	quad_fem_l/activation	gem_l/activation	peri_l/activation	rect_fem_l/activation	vas_med_l/activation	vas_int_l/activation	vas_lat_l/activation	med_gas_l/activation	lat_gas_l/activation	soleus_l/activation	tib_post_l/activation	flex_dig_l/activation	flex_hal_l/activation	tib_ant_l/activation	per_brev_l/activation	per_long_l/activation	per_tert_l/activation	ext_dig_l/activation	ext_hal_l/activation	ercspn_l/activation	intobl_l/activation	extobl_l/activation	glut_med1_r/activation	glut_med2_r/activation	glut_med3_r/activation	glut_min1_r/activation	glut_min2_r/activation	glut_min3_r/activation	semimem_r/activation	semiten_r/activation	bifemlh_r/activation	bifemsh_r/activation	sar_r/activation	add_long_r/activation	add_brev_r/activation	add_mag1_r/activation	add_mag2_r/activation	add_mag3_r/activation	tfl_r/activation	pect_r/activation	grac_r/activation	glut_max1_r/activation	glut_max2_r/activation	glut_max3_r/activation	iliacus_r/activation	psoas_r/activation	quad_fem_r/activation	gem_r/activation	peri_r/activation	rect_fem_r/activation	vas_med_r/activation	vas_int_r/activation	vas_lat_r/activation	med_gas_r/activation	lat_gas_r/activation	soleus_r/activation	tib_post_r/activation	flex_dig_r/activation	flex_hal_r/activation	tib_ant_r/activation	per_brev_r/activation	per_long_r/activation	per_tert_r/activation	ext_dig_r/activation	ext_hal_r/activation	ercspn_r/activation	intobl_r/activation	extobl_r/activation	
          0.00000000	         -2.93017644	         -2.01745617	          4.61618290	          0.00000000	          0.91992014	         -0.00234284	        -17.20480726	         -0.67000774	          6.54499198	         29.52389198	          3.39188628	         -2.22414373	         -5.46163214	        -11.85853163	         -1.23030534	          6.31702499	          7.09969365	         -4.64149533	          2.92118245	          0.03537774	         23.61961265	          0.53251680	         -2.30474564	          0.35000617	         -1.89337474	          4.75398295	        -13.45036269	         15.19996211	         -4.51047120	        -13.45942821	          5.63728900	         34.27651905	         17.46530176	         86.51662706	         86.51662706	          0.33220699	          0.09846846	          0.07742383	          0.33289469	          0.21319001	          0.11456829	          0.05000113	          0.05000031	          0.05000022	          0.06471432	          0.11549965	          0.05000016	          0.05000015	          0.05000021	          0.05000057	          0.05000043	          0.34745067	          0.05000071	          0.05000048	          0.05007335	          0.05000692	          0.05000129	          0.40973339	          0.66435407	          0.05000028	          0.05000087	          0.05391422	          0.20955290	          0.05000088	          0.05000078	          0.05000074	          0.30156523	          0.42268274	          0.31657436	          0.30769383	          0.33493847	          0.40927122	          0.05000008	          0.05037691	          0.09408130	          0.05000044	          0.05000012	          0.05000042	          0.05000002	          0.05000001	          0.05000005	          0.05000055	          0.05000047	          0.05922622	          0.05000019	          0.05000025	          0.05000178	          0.22753981	          0.05922581	          0.05990506	          0.05000076	          0.05000110	          0.10006310	          0.20645234	          0.19030630	          0.16035479	          0.11565754	          0.05922547	          0.05004712	          0.09660828	          0.05923206	          0.07206344	          0.11658583	          0.05000016	          0.05000020	          0.22262727	          0.05001536	          0.05000097	          0.05000022	          0.08816590	          0.08938862	          0.07612333	          0.05000063	          0.05000085	          0.05773065	          0.05000019	          0.05000081	          0.05000083	          0.48877157	          0.29233738	          0.18038792	          0.11438721	          0.46678897	          0.08870933	          0.06322839	          0.12459329	          0.11221379	
          0.01107044	         -2.92766037	         -2.12075534	          4.91105456	          0.01648208	          0.91893032	         -0.00212638	        -17.13720007	         -0.97648357	          6.34796174	         28.96485606	          3.76195333	         -2.04228932	         -7.26087925	        -11.84441618	         -1.77307930	          5.71856864	          8.07120858	         -5.02522244	          2.56477685	          0.03694281	         25.09583956	          0.55419711	         -2.11750355	          0.56125758	         -1.96329210	          4.51013429	        -13.45540725	         15.54745297	         -5.29935713	        -13.45784580	          5.37117824	         35.43355333	         16.98375767	         86.51662706	         86.51662706	          0.28046023	          0.08313035	          0.06536382	          0.28104083	          0.17998211	          0.09672239	          0.05000586	          0.05000102	          0.05000117	          0.05463408	          0.09750894	          0.10034232	          0.08353660	          0.05054761	          0.05006214	          0.05015433	          0.29332958	          0.06561461	          0.05001893	          0.05000558	          0.05000339	          0.05000480	          0.34591050	          0.58824333	          0.05000118	          0.05009749	          0.05922541	          0.17691195	          0.06012219	          0.16663267	          0.14165507	          0.25459130	          0.35684277	          0.28811327	          0.28961445	          0.28286935	          0.37011947	          0.05000010	          0.05000058	          0.08997421	          0.05000036	          0.05000011	          0.05000046	          0.05000012	          0.07015292	          0.05000017	          0.05000352	          0.05000132	          0.05000099	          0.05922548	          0.05794217	          0.05000069	          0.19209737	          0.05000055	          0.05057389	          0.05000059	          0.05000291	          0.11658187	          0.21203602	          0.24249602	          0.16724557	          0.10650179	          0.05000044	          0.06463184	          0.08156108	          0.05000593	          0.06083846	          0.12758803	          0.06201832	          0.06335626	          0.55272698	          0.16950750	          0.12902271	          0.07224933	          0.19066652	          0.19018073	          0.16463249	          0.05000004	          0.05000008	          0.05000001	          0.05000055	          0.05000234	          0.05000229	          0.54432116	          0.24680156	          0.19048317	          0.25996347	          0.48920978	          0.10758813	          0.05337950	          0.10518577	          0.09473459	
          0.02214088	         -2.92140308	         -2.22677095	          5.18240358	          0.03328297	          0.91800395	         -0.00192526	        -16.99365684	         -1.28546908	          6.14030676	         28.29544478	          4.05981220	         -1.80036919	         -9.18689576	        -12.29408369	         -2.46667211	          5.09062984	          9.02620536	         -5.41924454	          2.12262742	         -0.07810705	         26.57694357	          0.52381185	         -1.90835074	          0.78416497	         -2.02264273	          4.19169823	        -13.45650843	         15.83271467	         -6.12931128	        -13.46230360	          5.14061247	         36.56516560	         16.57044684	         86.51662706	         86.51662706	          0.34922209	          0.07018140	          0.05518237	          0.23726425	          0.15194692	          0.08165628	          0.05000200	          0.05000084	          0.05000063	          0.05000022	          0.08232074	          0.14159004	          0.08932675	          0.05922686	          0.05922536	          0.05922334	          0.24763958	          0.07980720	          0.05006048	          0.05004707	          0.05005593	          0.05850024	          0.29202938	          0.57010716	          0.05688741	          0.05000148	          0.05000022	          0.14935494	          0.12365663	          0.14067777	          0.11959070	          0.21493435	          0.30125842	          0.24323470	          0.24450231	          0.23880810	          0.31246752	          0.05000002	          0.05000055	          0.12254358	          0.05000013	          0.05000003	          0.05000019	          0.05331126	          0.05922542	          0.05922522	          0.21189233	          0.05000015	          0.05000031	          0.05000029	          0.05000018	          0.21841621	          0.17875029	          0.07409337	          0.06815980	          0.05000035	          0.05000204	          0.09842243	          0.17900826	          0.20472340	          0.14119462	          0.12041957	          0.05000093	          0.05922832	          0.07168883	          0.05000039	          0.09448934	          0.10771433	          0.05922521	          0.05417766	          0.46663035	          0.14310393	          0.16957023	          0.06099528	          0.16096704	          0.16055692	          0.13898824	          0.05413034	          0.05696254	          0.05434689	          0.05912243	          0.05000177	          0.05000169	          0.45953398	          0.28862909	          0.16081245	          0.21946995	          0.53540347	          0.09082949	          0.05000005	          0.11660564	          0.07997807	
          0.03321131	         -2.91299676	         -2.33524294	          5.42294120	          0.05024866	          0.91714966	         -0.00171319	        -16.74954495	         -1.59320434	          5.92962239	         27.51840001	          4.30824753	         -1.54878137	        -11.26291443	        -12.74651200	         -3.34378419	          4.55192825	          9.94414097	         -5.80601153	          1.64459052	         -0.04203497	         28.00505769	          0.51027129	         -1.69365719	          1.01677662	         -2.07385703	          3.81971933	        -13.45931128	         16.06668848	         -6.96209368	        -13.47110325	          4.95771924	         37.66308418	         16.20565500	         86.51662706	         86.51662706	          0.30018385	          0.05924948	          0.05000014	          0.33641265	          0.12827871	          0.06893700	          0.05000473	          0.05000031	          0.05000025	          0.05000048	          0.06951829	          0.11971423	          0.07541281	          0.05000166	          0.05000205	          0.05000083	          0.27642044	          0.06737874	          0.05000083	          0.05000207	          0.05000122	          0.05000086	          0.24654092	          0.52642585	          0.05000015	          0.05000097	          0.05000046	          0.13294508	          0.10439665	          0.11877858	          0.13102324	          0.18145465	          0.25433228	          0.20534674	          0.20641697	          0.20160986	          0.26379553	          0.05000013	          0.08004539	          0.13161280	          0.05000043	          0.05274075	          0.05000038	          0.06174349	          0.05000005	          0.05000005	          0.30992249	          0.26006267	          0.26172381	          0.15797528	          0.20858049	          0.18439482	          0.15090692	          0.06255783	          0.05754289	          0.07611571	          0.05000484	          0.08309151	          0.15112471	          0.17283444	          0.11920151	          0.14273681	          0.05000090	          0.05000302	          0.06052245	          0.19383132	          0.15801111	          0.11450154	          0.05000013	          0.05000015	          0.39394477	          0.12081323	          0.14315701	          0.05149427	          0.13589560	          0.14292015	          0.11734022	          0.05000028	          0.05000070	          0.05000009	          0.05000010	          0.05000029	          0.05000039	          0.58437109	          0.33548089	          0.18049357	          0.50199103	          0.55057817	          0.23079643	          0.07459500	          0.09844250	          0.06752013	
